<?xml version="1.0" encoding="utf-8"?>
<!-- Generator: Adobe Illustrator 21.1.0, SVG Export Plug-In . SVG Version: 6.00 Build 0)  -->
<svg version="1.1" id="Ebene_1" xmlns="http://www.w3.org/2000/svg" xmlns:xlink="http://www.w3.org/1999/xlink" x="0px" y="0px"
	 viewBox="0 0 164 76" style="enable-background:new 0 0 164 76;" xml:space="preserve">
<style type="text/css">
	.st0{fill:#1A171B;}
	.st1{fill:none;stroke:#1A171B;stroke-width:0.81;stroke-miterlimit:3.86;}
	.st2{fill:#E20020;}
	.st3{fill:#FFFFFF;}
</style>
<title>Zeichenfläche 1</title>
<path class="st0" d="M62.5,41.2l-0.9-10h-2.2l-1.6,5.7c-0.1,0.5-0.3,1.1-0.4,1.6c-0.1-0.3-0.2-0.8-0.4-1.7l-1.5-5.7h-2.2l-0.9,10H54
	l0.4-6c0-0.6,0.1-1.5,0.1-1.9c0.1,0.3,0.2,1.2,0.4,1.8l1.7,6.1H58l1.8-6.3c0.2-0.6,0.3-1.2,0.4-1.6c0,0.3,0,1.1,0.1,1.7l0.5,6.2
	L62.5,41.2z"/>
<path class="st0" d="M68.1,37.7v1.7c-0.3,0.5-0.8,0.7-1.3,0.8c-0.6,0-1-0.4-1-1c0,0,0-0.1,0-0.1c0-0.9,0.5-1.4,2.1-1.4L68.1,37.7
	 M70.3,40.5c-0.6-0.4-0.7-0.7-0.6-1.7v-2.1c0.1-0.6,0-1.2-0.1-1.8c-0.4-0.8-1.3-1.3-2.2-1.2c-1.1,0-2.2,0.4-3.1,1l0.7,1.1
	c0.6-0.5,1.4-0.8,2.2-0.8c0.9,0,1,0.5,1,1.3v0.4h-0.5c-2.3,0-3.6,0.8-3.6,2.5c0,1.3,0.8,2.2,2.4,2.2c0.8,0,1.5-0.3,2-0.9
	c0.2,0.5,0.5,0.8,1,1L70.3,40.5z"/>
<path class="st0" d="M73.5,41.2v-7.5L71.9,34v7.2H73.5z M72.7,32.8c0.6,0,1.1-0.5,1.1-1.1c0-0.6-0.5-1-1.1-1c-0.6,0-1,0.5-1,1
	C71.6,32.3,72,32.7,72.7,32.8C72.6,32.8,72.6,32.8,72.7,32.8"/>
<path class="st0" d="M81.3,41.2v-5.5c0.1-1-0.6-1.9-1.6-2c-0.1,0-0.2,0-0.3,0c-0.8,0-1.6,0.4-2.2,1c0-0.3-0.1-0.7-0.3-1l-1.4,0.4
	c0.2,0.6,0.3,1.1,0.3,1.7v5.4h1.6v-5.4c0.4-0.5,1-0.7,1.6-0.8c0.6,0,0.8,0.3,0.8,1.3v4.9L81.3,41.2z"/>
<polygon class="st0" points="88.4,40.1 84.7,40.1 88.2,35 88.2,33.9 83,33.9 83,35 86.4,35 82.7,40.1 82.7,41.2 87.9,41.2 "/>
<polygon class="st0" points="52.8,26.1 57.7,26.1 57.9,25.1 54,25.1 54,16.2 52.8,16.2 "/>
<path class="st0" d="M63,24.3c-0.3,0.7-1,1.1-1.8,1.1c-0.8,0-1.2-0.5-1.2-1.3c0-1.1,0.7-1.7,2.5-1.7c0.2,0,0.4,0,0.6,0L63,24.3z
	 M59.6,20.5c0.7-0.5,1.5-0.8,2.3-0.9c0.4,0,0.7,0.1,1,0.4c0.2,0.2,0.2,0.5,0.2,1.1v0.5h-0.5c-2.4,0-3.8,1-3.8,2.6
	c0,1,0.5,2.1,2.3,2.1c0.8,0,1.6-0.4,2.1-1c0.1,0.5,0.5,0.9,1,1.1l0.6-0.8c-0.5-0.3-0.6-0.6-0.6-1.8l0.1-2.4c0-0.5,0-1.1-0.2-1.6
	c-0.4-0.8-1.2-1.2-2-1.1c-1.1,0-2.1,0.4-3,1L59.6,20.5z"/>
<path class="st0" d="M66.6,20.5v5.6h1.1v-5.4c0.5-0.6,1.2-0.9,2-1c0.3,0,0.6,0.1,0.8,0.3c0.2,0.2,0.3,0.4,0.3,1.2v4.9h1.1v-5.5
	c0-0.3-0.1-0.6-0.2-0.8c-0.3-0.7-1-1.1-1.8-1.1c-0.9,0-1.7,0.5-2.3,1.1c0-0.4-0.1-0.8-0.3-1.1L66.4,19C66.6,19.5,66.7,20,66.6,20.5"
	/>
<path class="st0" d="M78.6,24.3c-0.1,0.2-0.2,0.4-0.4,0.5c-0.4,0.3-0.9,0.5-1.4,0.5c-0.6,0-1.2-0.3-1.4-0.8
	c-0.2-0.6-0.3-1.2-0.3-1.9c-0.1-0.7,0.1-1.5,0.5-2.1c0.3-0.5,0.8-0.8,1.3-0.8c0.7-0.1,1.3,0.2,1.8,0.8V24.3z M78.6,15.5v3
	c0,0.5,0,1.1,0,1.1c-0.5-0.6-1.2-0.9-2-0.9c-0.5,0-1,0.2-1.4,0.5c-1,0.8-1.6,2-1.5,3.3c0,2.3,1.1,3.7,2.9,3.7c0.7,0,1.4-0.3,1.9-0.8
	c0,0.3,0.1,0.5,0.2,0.7h1.2c-0.2-0.8-0.3-1.5-0.2-2.3v-8L78.6,15.5z"/>
<path class="st0" d="M84.6,19.6c0.5,0,1,0.2,1.3,0.6c0.3,0.5,0.4,1.1,0.3,1.6H83C83.1,20.3,83.6,19.6,84.6,19.6 M85.1,25.3
	c-0.7,0-1.4-0.3-1.8-0.9c-0.3-0.5-0.4-1-0.3-1.6v-0.2h4.5v-0.2c0-1.7-0.2-2.4-0.8-3c-1.1-1.1-2.9-1-4,0.1c0,0-0.1,0.1-0.1,0.1
	c-0.6,0.8-0.9,1.7-0.9,2.7c0,2.4,1.2,3.8,3.2,3.8c0.9,0,1.8-0.3,2.4-0.9l-0.4-0.7C86.4,25.1,85.8,25.4,85.1,25.3"/>
<path class="st0" d="M91.7,18.6c-1.3-0.1-2.4,0.8-2.5,2c0,0.1,0,0.1,0,0.2c0,1,0.8,1.9,1.8,2l0.9,0.2c0.8,0.2,1.2,0.5,1.2,1.2
	s-0.6,1.2-1.5,1.2c-0.8,0-1.6-0.2-2.3-0.7l-0.4,0.8c0.8,0.5,1.7,0.7,2.7,0.7c1.3,0.2,2.5-0.8,2.7-2.1c0-0.1,0-0.2,0-0.2
	c0-1.1-0.6-1.7-1.9-2l-1-0.2c-0.8-0.2-1-0.5-1-1c0-0.7,0.6-1.2,1.2-1.2c0,0,0.1,0,0.1,0c0.6,0,1.3,0.2,1.8,0.5l0.4-0.8
	C93.2,18.9,92.4,18.7,91.7,18.6"/>
<path class="st0" d="M96.1,17.2v8.9h1.1V21c0.5-0.7,1.3-1.1,2.1-1.2c0.3,0,0.6,0.1,0.8,0.3c0.2,0.3,0.3,0.7,0.3,1.1v5h1.1v-5.2
	c0-0.3,0-0.7-0.1-1c-0.3-0.7-1.1-1.2-1.9-1.1c-0.9,0.1-1.8,0.5-2.4,1.1c0,0,0-0.5,0-1v-1.7c0-0.6,0-1.2-0.2-1.7l-1.1,0.2
	C96,16.2,96,16.7,96.1,17.2"/>
<path class="st0" d="M107.6,24.3c-0.3,0.7-1,1.1-1.8,1.1c-0.8,0-1.2-0.5-1.2-1.3c0-1.1,0.6-1.7,2.5-1.7c0.2,0,0.4,0,0.6,0
	L107.6,24.3z M104.2,20.5c0.7-0.5,1.5-0.8,2.3-0.9c0.4,0,0.7,0.1,1,0.4c0.2,0.2,0.2,0.5,0.2,1.1v0.5h-0.5c-2.4,0-3.8,1-3.8,2.6
	c0,1,0.5,2.1,2.3,2.1c0.8,0,1.6-0.4,2.1-1c0.1,0.5,0.5,0.9,1,1.1l0.6-0.8c-0.5-0.3-0.6-0.6-0.6-1.8l0.1-2.4c0-0.5,0-1.1-0.2-1.6
	c-0.4-0.8-1.2-1.2-2-1.1c-1.1,0-2.1,0.4-3,1L104.2,20.5z"/>
<path class="st0" d="M111.1,24.2c0,0.4,0.1,0.7,0.2,1.1c0.4,0.7,1.1,1.1,1.9,1c0.9,0,1.8-0.4,2.3-1.1c0.1,0.5,0.4,0.9,0.8,1.2
	l0.7-0.8c-0.4-0.3-0.5-0.7-0.5-1.6v-5.2l-1.1,0.2v5.1c-0.3,0.7-1,1.2-1.8,1.3c-0.3,0-0.6-0.1-0.9-0.2c-0.3-0.2-0.4-0.5-0.4-1.2v-5.2
	l-1.1,0.2L111.1,24.2z"/>
<path class="st0" d="M120.2,20.8c0.5-0.6,1.2-1,1.9-1c0.6,0,1.1,0.3,1.3,0.8c0.2,0.7,0.4,1.4,0.3,2.1c0,0.6-0.1,1.2-0.3,1.8
	c-0.3,0.6-0.9,0.9-1.5,0.9c-0.7,0-1.3-0.4-1.8-0.9V20.8z M119.1,20.4v8.7l1.1-0.2v-3.4c0.5,0.5,1.2,0.8,2,0.8c0.9,0,1.8-0.5,2.2-1.3
	c0.4-0.8,0.6-1.6,0.6-2.5c0.1-1-0.2-2-0.8-2.8c-0.5-0.6-1.2-0.9-1.9-0.9c-0.8,0-1.6,0.4-2.1,1.1c0-0.4,0-0.7-0.1-1.1l-1.2,0.2
	C119.1,19.4,119.1,19.9,119.1,20.4"/>
<path class="st0" d="M128.2,18.9c0-0.7,0.1-1.4,0.1-2.1l-1.2,0.3c0,0-0.1,1.1-0.1,1.8h-0.9v0.9h0.9v5c0,0.7,0.2,1.2,0.7,1.4
	c0.3,0.1,0.6,0.2,0.9,0.2c0.4,0,0.9-0.1,1.3-0.3l-0.2-0.7c-0.2,0.1-0.5,0.2-0.7,0.1c-0.7,0-0.9-0.3-0.9-1.1v-4.6h1.5l0.4-0.9
	L128.2,18.9z"/>
<path class="st0" d="M133.8,18.6c-1.3-0.1-2.4,0.8-2.5,2c0,0.1,0,0.1,0,0.2c0,1,0.8,1.9,1.8,2l0.9,0.2c0.8,0.2,1.2,0.5,1.2,1.2
	s-0.6,1.2-1.5,1.2c-0.8,0-1.6-0.2-2.3-0.7l-0.4,0.8c0.8,0.5,1.7,0.7,2.6,0.7c1.3,0.2,2.5-0.8,2.7-2.1c0-0.1,0-0.2,0-0.2
	c0-1.1-0.6-1.7-1.9-2l-1-0.2c-0.8-0.2-1-0.5-1-1c0-0.7,0.6-1.2,1.2-1.2c0,0,0.1,0,0.1,0c0.6,0,1.3,0.2,1.8,0.5l0.4-0.8
	C135.3,18.9,134.6,18.7,133.8,18.6"/>
<path class="st0" d="M139.4,18.9c0-0.7,0.1-1.4,0.1-2.1l-1.2,0.3c0,0-0.1,1.1-0.1,1.8h-0.9v0.9h0.9v5c0,0.7,0.2,1.2,0.7,1.4
	c0.3,0.1,0.6,0.2,0.9,0.2c0.4,0,0.9-0.1,1.3-0.3l-0.2-0.7c-0.2,0.1-0.5,0.2-0.7,0.1c-0.7,0-0.9-0.3-0.9-1.1v-4.6h1.5l0.4-0.9
	L139.4,18.9z"/>
<path class="st0" d="M146.6,24.3c-0.3,0.7-1,1.1-1.8,1.1c-0.8,0-1.2-0.5-1.2-1.3c0-1.1,0.6-1.7,2.5-1.7c0.2,0,0.4,0,0.6,0
	L146.6,24.3z M143.1,20.5c0.7-0.5,1.5-0.8,2.3-0.9c0.4,0,0.7,0.1,1,0.4c0.2,0.2,0.2,0.5,0.2,1.1v0.5h-0.5c-2.4,0-3.8,1-3.8,2.6
	c0,1,0.5,2.1,2.3,2.1c0.8,0,1.6-0.4,2.1-1c0.1,0.5,0.5,0.9,1,1.1l0.6-0.8c-0.5-0.3-0.6-0.6-0.6-1.8l0.1-2.4c0-0.5,0-1.1-0.2-1.6
	c-0.4-0.8-1.2-1.2-2-1.1c-1.1,0-2.1,0.4-3,1L143.1,20.5z"/>
<path class="st0" d="M154.4,24.3c-0.1,0.2-0.2,0.4-0.4,0.5c-0.4,0.3-0.9,0.5-1.4,0.5c-0.6,0-1.2-0.3-1.4-0.8
	c-0.2-0.6-0.3-1.2-0.3-1.9c-0.1-0.7,0.1-1.5,0.5-2.1c0.3-0.5,0.8-0.8,1.4-0.8c0.7-0.1,1.3,0.2,1.8,0.8L154.4,24.3z M154.4,15.5v3
	c0,0.5,0,1.1,0,1.1c-0.5-0.6-1.2-0.9-2-0.9c-0.5,0-1,0.2-1.4,0.5c-1,0.8-1.6,2-1.5,3.3c0,2.3,1.1,3.7,2.9,3.7c0.7,0,1.4-0.3,1.9-0.8
	c0,0.3,0.1,0.5,0.2,0.7h1.2c-0.2-0.8-0.3-1.5-0.2-2.3v-8L154.4,15.5z"/>
<path class="st0" d="M159.3,18.9c0-0.7,0.1-1.4,0.1-2.1l-1.2,0.3c0,0-0.1,1.1-0.1,1.8h-0.9v0.9h0.9v5c0,0.7,0.2,1.2,0.7,1.4
	c0.3,0.1,0.6,0.2,0.9,0.2c0.4,0,0.9-0.1,1.3-0.3l-0.2-0.7c-0.2,0.1-0.5,0.2-0.7,0.1c-0.7,0-0.9-0.3-0.9-1.1v-4.6h1.5l0.4-0.9
	L159.3,18.9z"/>
<line class="st1" x1="43.2" y1="4.4" x2="43.2" y2="73.1"/>
<path class="st2" d="M33.6,33.9L33.6,33.9C33.6,33.9,33.6,33.9,33.6,33.9c0,8.4-6.7,15.1-15,15.1s-15-6.7-15-15c0,0,0,0,0-0.1l0,0
	L3,12.2c5.2-0.9,10.4-1.4,15.6-1.4c5.2,0,10.4,0.5,15.6,1.4L33.6,33.9z"/>
<path class="st3" d="M27.9,39.2L27.9,39.2L27.9,39.2l-2.4-2.9c0,0,0,0,0-0.1c0,0,0,0,0,0l3.7-0.6h0l0,0C29.3,37,28.8,38.3,27.9,39.2
	 M26.8,40.1c-1.1,0.7-2.4,0.9-3.7,0.6l0,0c0,0,0,0,0,0l1.3-3.5c0,0,0,0,0,0c0,0,0,0,0.1,0L26.8,40.1C26.8,40.1,26.8,40.1,26.8,40.1
	L26.8,40.1 M21.8,40.2L21.8,40.2c-1.2-0.6-2.1-1.7-2.5-2.9c0,0,0,0,0,0l0,0l3.7-0.6c0,0,0,0,0.1,0c0,0,0,0,0,0.1L21.8,40.2
	L21.8,40.2 M19.1,35.8C19.1,35.8,19.1,35.8,19.1,35.8c0-1.3,0.5-2.6,1.3-3.5h0l0,0l2.3,2.9c0,0,0,0,0,0.1c0,0,0,0,0,0L19.1,35.8
	L19.1,35.8 M25.2,30.8L24,34.3l-2.3-2.9c1.1-0.7,2.4-0.9,3.7-0.6 M26.7,31.4L26.7,31.4c1.2,0.7,2,1.7,2.3,2.9c0,0,0,0,0,0l0,0
	l-3.7,0.6c0,0,0,0-0.1,0c0,0,0,0,0-0.1L26.7,31.4L26.7,31.4 M15.8,24.2L15.8,24.2l-2.3-2.9c0,0,0-0.1,0-0.1c0,0,0,0,0,0l3.7-0.6h0
	l0,0C17.2,22,16.7,23.2,15.8,24.2L15.8,24.2 M14.7,25.1c-1.1,0.7-2.4,0.9-3.7,0.6l0,0c0,0,0,0,0,0l1.3-3.5c0,0,0,0,0,0
	c0,0,0,0,0.1,0L14.7,25.1C14.7,25.1,14.7,25.1,14.7,25.1L14.7,25.1 M9.7,25.2L9.7,25.2c-1.2-0.6-2-1.7-2.4-2.9c0,0,0,0,0,0l0,0
	l3.7-0.6c0,0,0,0,0.1,0c0,0,0,0,0,0.1L9.7,25.2L9.7,25.2 M7.1,20.8L7.1,20.8c0-1.3,0.5-2.5,1.3-3.5h0l0,0l2.3,2.9c0,0,0,0.1,0,0.1
	c0,0,0,0,0,0L7.1,20.8L7.1,20.8 M9.6,16.4c1.1-0.7,2.4-0.9,3.7-0.6l0,0c0,0,0,0,0,0L12,19.4c0,0,0,0,0,0c0,0,0,0-0.1,0l-2.4-2.9
	C9.5,16.5,9.5,16.5,9.6,16.4L9.6,16.4 M14.5,16.4L14.5,16.4c1.2,0.6,2.1,1.6,2.5,2.9c0,0,0,0,0,0l0,0l-3.7,0.6c0,0,0,0-0.1,0
	c0,0,0,0,0-0.1L14.5,16.4L14.5,16.4 M29.2,31.7c-2.1-2.5-5.7-3.1-8.4-1.4c0,0-0.1,0-0.1,0l-1.5-1.9c0,0,0-0.1,0-0.1l3.3-2.7l-0.8-1
	l-3.3,2.7l0,0l0,0l-1.5-1.9c0,0,0-0.1,0-0.1c2.5-2.6,2.4-6.6-0.1-9.1c-2.6-2.5-6.6-2.4-9.1,0.1c-2.5,2.6-2.4,6.6,0.1,9.1
	c2.2,2.1,5.5,2.4,8,0.8c0,0,0.1,0,0.1,0c0,0,0,0,0,0l1.4,1.8c0,0,0,0.1,0,0.1L14,30.8l0.8,1l3.2-2.6l0,0l0,0l1.7,1.9
	c0,0,0,0.1,0,0.1c-2.5,2.5-2.5,6.6,0,9.1c2.5,2.5,6.6,2.5,9.1,0C31.1,38,31.3,34.3,29.2,31.7"/>
</svg>
